<?xml version="1.0" standalone="no"?>
<!DOCTYPE svg PUBLIC "-//W3C//DTD SVG 20010904//EN"
 "http://www.w3.org/TR/2001/REC-SVG-20010904/DTD/svg10.dtd">
<svg version="1.0" xmlns="http://www.w3.org/2000/svg"
 width="225.000000pt" height="225.000000pt" viewBox="0 0 225.000000 225.000000"
 preserveAspectRatio="xMidYMid meet">

<g transform="translate(0.000000,225.000000) scale(0.100000,-0.100000)"
fill="#000000" stroke="none">
<path d="M350 2239 c-70 -14 -166 -66 -220 -119 -57 -58 -106 -151 -120 -232
-7 -37 -10 -317 -8 -800 l3 -743 23 -56 c50 -126 151 -223 274 -266 50 -17
102 -18 828 -18 l775 0 56 23 c126 50 223 151 266 274 17 50 18 102 18 823 0
721 -1 773 -18 823 -43 123 -140 224 -266 274 l-56 23 -755 2 c-415 0 -775 -3
-800 -8z m1011 -526 c23 -65 59 -163 79 -218 l37 -100 -177 -3 -176 -2 -21
-63 c-45 -134 -325 -892 -332 -900 -4 -4 -84 -6 -178 -5 l-171 3 214 590 c118
325 233 641 255 703 l41 112 193 0 193 0 43 -117z m288 -808 c70 -187 139
-373 154 -412 l27 -73 -163 0 -162 0 -66 197 -65 197 -68 -197 -68 -197 -163
0 -163 0 145 383 c80 210 150 397 156 415 l11 33 149 -3 149 -3 127 -340z"/>
</g>
</svg>
